<!-- COPYRIGHT: Shahrad Elahi <https://github.com/shahradelahi> -->
<svg width="265" height="292" viewBox="0 0 265 292" fill="none" xmlns="http://www.w3.org/2000/svg">
<path fill-rule="evenodd"
      clip-rule="evenodd"
      d="M120.218 3.22577C127.843 -1.07526 137.161 -1.07526 144.786 3.22577L252.288 63.8723C260.144 68.3046 265.004 76.6257 265.004 85.6464V205.946C265.004 214.966 260.144 223.288 252.288 227.72L144.786 288.366C137.161 292.667 127.843 292.667 120.218 288.366L12.7163 227.72C4.85986 223.288 0 214.966 0 205.946V85.6464C0 76.6257 4.85986 68.3046 12.7163 63.8723L120.218 3.22577ZM109.051 100.071C109.051 106.021 104.227 110.845 98.2764 110.845C92.3257 110.845 87.502 106.021 87.502 100.071C87.502 94.1201 92.3257 89.2961 98.2764 89.2961C104.227 89.2961 109.051 94.1201 109.051 100.071ZM98.2764 145.071C104.227 145.071 109.051 140.247 109.051 134.296C109.051 128.345 104.227 123.521 98.2764 123.521C92.3257 123.521 87.502 128.345 87.502 134.296C87.502 140.247 92.3257 145.071 98.2764 145.071ZM109.051 168.521C109.051 174.472 104.227 179.296 98.2764 179.296C92.3257 179.296 87.502 174.472 87.502 168.521C87.502 162.571 92.3257 157.747 98.2764 157.747C104.227 157.747 109.051 162.571 109.051 168.521ZM132.502 110.845C138.453 110.845 143.277 106.021 143.277 100.071C143.277 94.1201 138.453 89.2961 132.502 89.2961C126.551 89.2961 121.728 94.1201 121.728 100.071C121.728 106.021 126.551 110.845 132.502 110.845ZM177.502 100.071C177.502 106.021 172.678 110.845 166.727 110.845C160.776 110.845 155.953 106.021 155.953 100.071C155.953 94.1201 160.776 89.2961 166.727 89.2961C172.678 89.2961 177.502 94.1201 177.502 100.071ZM132.502 145.071C138.453 145.071 143.277 140.247 143.277 134.296C143.277 128.345 138.453 123.521 132.502 123.521C126.551 123.521 121.728 128.345 121.728 134.296C121.728 140.247 126.551 145.071 132.502 145.071ZM143.277 168.521C143.277 174.472 138.453 179.296 132.502 179.296C126.551 179.296 121.728 174.472 121.728 168.521C121.728 162.571 126.551 157.747 132.502 157.747C138.453 157.747 143.277 162.571 143.277 168.521ZM132.502 213.521C138.453 213.521 143.277 208.697 143.277 202.747C143.277 196.796 138.453 191.972 132.502 191.972C126.551 191.972 121.728 196.796 121.728 202.747C121.728 208.697 126.551 213.521 132.502 213.521ZM177.502 134.296C177.502 140.247 172.678 145.071 166.727 145.071C160.776 145.071 155.953 140.247 155.953 134.296C155.953 128.345 160.776 123.521 166.727 123.521C172.678 123.521 177.502 128.345 177.502 134.296ZM166.727 179.296C172.678 179.296 177.502 174.472 177.502 168.521C177.502 162.571 172.678 157.747 166.727 157.747C160.776 157.747 155.953 162.571 155.953 168.521C155.953 174.472 160.776 179.296 166.727 179.296Z"
      fill="#3178C6" />
</svg>
